<?xml version="1.0" standalone="no"?>
<!DOCTYPE svg PUBLIC "-//W3C//DTD SVG 20010904//EN"
 "http://www.w3.org/TR/2001/REC-SVG-20010904/DTD/svg10.dtd">
<svg version="1.0" xmlns="http://www.w3.org/2000/svg"
 width="562.000000pt" height="562.000000pt" viewBox="0 0 562.000000 562.000000"
 preserveAspectRatio="xMidYMid meet">
<metadata>
Created by potrace 1.14, written by Peter Selinger 2001-2017
</metadata>
<g transform="translate(0.000000,562.000000) scale(0.100000,-0.100000)"
fill="#000000" stroke="none">
<path d="M40 4305 l0 -1265 28 0 c44 0 161 -36 184 -56 11 -11 31 -42 43 -70
25 -55 49 -68 151 -80 78 -9 94 -13 94 -28 0 -22 -19 -24 -126 -12 -101 12
-131 23 -184 71 -15 14 -45 26 -75 30 -27 4 -62 13 -77 21 -15 8 -29 14 -33
14 -3 0 -5 -659 -5 -1465 l0 -1465 779 0 779 0 12 35 c17 52 34 57 27 7 l-5
-42 1162 0 1163 0 44 70 c24 39 66 101 93 138 82 112 146 206 146 215 0 4 17
31 39 60 21 29 45 69 52 90 7 20 19 37 27 37 27 0 73 -43 103 -95 16 -29 44
-63 62 -75 18 -12 52 -57 77 -101 25 -43 48 -79 52 -79 4 0 19 -17 32 -37 14
-21 52 -67 85 -103 33 -36 66 -77 72 -92 l11 -28 289 0 c279 0 289 1 289 19 0
11 4 22 10 26 15 9 48 -17 44 -34 -3 -9 1 -6 8 7 9 18 9 28 1 41 -9 15 -3 26
38 69 26 28 57 53 69 57 15 5 20 15 20 41 0 20 -5 44 -10 54 -7 13 -7 21 0 25
6 4 10 67 10 158 l0 152 -29 -60 c-17 -33 -37 -69 -45 -79 -15 -18 -16 -18
-35 5 -27 32 -27 122 -2 204 l18 60 7 -35 c3 -19 5 -44 3 -54 -1 -10 3 -21 9
-23 14 -5 34 118 26 166 -7 51 20 35 34 -20 10 -34 12 215 11 1163 l-2 1206
-24 26 c-18 19 -30 24 -48 20 -27 -7 -73 19 -73 41 0 8 11 17 25 21 23 6 38
44 17 44 -5 0 -30 20 -56 44 -37 34 -44 45 -32 49 18 7 46 -1 46 -13 0 -5 9
-6 20 -3 15 4 20 0 20 -16 0 -11 5 -21 10 -21 6 0 10 6 10 13 -1 20 -28 50
-39 43 -6 -4 -20 3 -31 14 -16 16 -19 25 -10 35 15 18 -4 29 -28 16 -15 -8
-24 -5 -42 14 -12 13 -38 31 -56 40 -19 9 -34 20 -34 24 0 8 -44 32 -67 37
-26 5 -62 40 -63 61 0 13 -19 37 -50 63 -28 23 -50 50 -50 61 0 10 -16 39 -35
65 -19 25 -35 49 -35 53 0 13 -49 31 -83 31 -18 0 -50 7 -72 15 -22 8 -54 14
-72 15 -28 0 -52 15 -41 25 6 6 86 6 161 1 119 -9 54 17 -75 29 -36 4 -48 13
-48 36 0 18 2 18 23 5 22 -14 68 -20 142 -17 l40 1 -29 15 c-15 8 -36 15 -46
15 -10 0 -23 6 -29 14 -7 8 -35 20 -64 26 -73 18 -82 23 -123 85 -29 45 -49
62 -102 88 -36 18 -67 38 -69 44 -5 13 73 1 105 -16 38 -20 40 -2 4 30 -17 16
-32 33 -32 38 0 21 -21 21 -46 2 -15 -12 -32 -21 -38 -21 -22 0 -65 54 -68 85
-3 29 -1 30 32 27 19 -1 41 -9 50 -17 21 -19 30 -19 30 0 0 8 -8 15 -18 15
-11 0 -27 10 -38 22 -10 12 -14 19 -9 15 6 -3 16 -2 23 2 9 6 7 14 -8 34 -12
15 -18 32 -15 38 4 5 1 24 -5 40 -14 33 -4 54 21 44 8 -3 32 -30 54 -60 22
-30 43 -55 48 -55 32 -1 -70 141 -112 155 -12 3 -33 17 -48 31 -20 18 -29 21
-39 13 -8 -6 -12 -15 -9 -18 8 -14 -163 -3 -187 12 -13 8 -38 18 -56 22 -18 4
-36 14 -39 23 -3 10 -11 23 -17 31 -11 14 -13 21 -24 96 -12 74 -42 119 -55
83 -5 -16 -71 16 -96 47 -24 32 -61 49 -74 36 -18 -18 -27 -13 -27 14 0 16 -6
25 -15 25 -8 0 -15 9 -15 20 0 22 -35 28 -44 8 -4 -9 -10 -6 -22 10 -20 26
-34 28 -34 5 0 -10 -15 -34 -32 -53 -30 -33 -34 -34 -97 -32 -70 2 -135 27
-126 49 4 12 -7 17 -28 14 -4 -1 -26 8 -49 19 -23 11 -59 20 -81 20 -36 0 -38
2 -37 28 5 66 -11 72 -29 12 -9 -31 -20 -45 -47 -57 -18 -9 -34 -20 -34 -24 0
-16 -33 -18 -60 -4 -32 17 -93 13 -119 -7 -9 -7 -27 -19 -40 -27 -22 -12 -26
-11 -37 4 -12 16 -16 15 -51 -12 -44 -34 -79 -54 -90 -51 -20 5 -83 -14 -83
-26 0 -20 50 -17 89 5 48 28 60 10 22 -34 -17 -19 -31 -41 -31 -50 0 -8 -13
-29 -30 -47 -17 -18 -30 -38 -30 -46 0 -8 -4 -22 -9 -32 -5 -9 -12 -25 -15
-35 -13 -41 -67 -21 -97 36 -11 19 9 137 24 137 4 0 5 5 2 10 -4 6 5 10 19 10
17 0 26 6 26 16 0 11 -6 14 -22 8 -25 -8 -52 -37 -70 -76 -15 -34 -33 -37 -24
-5 3 12 9 33 12 47 l6 25 -17 -23 c-9 -12 -22 -41 -29 -65 -12 -40 -14 -42
-49 -39 -34 3 -37 1 -37 -23 0 -30 -11 -32 -28 -4 -8 13 -19 18 -31 14 -14 -4
-20 1 -26 22 -3 15 -14 36 -22 46 -26 28 7 21 40 -9 22 -20 31 -23 41 -14 11
8 15 8 18 -2 7 -21 71 35 98 86 21 39 23 50 13 76 -9 25 -9 30 3 30 19 0 29
27 17 43 -6 6 -13 20 -16 30 -6 17 -4 16 19 -2 17 -13 35 -19 49 -15 13 3 26
1 29 -5 4 -6 18 -11 31 -11 19 0 22 4 17 22 -5 19 -2 21 26 15 30 -6 31 -5 22
19 -13 33 -13 34 4 34 8 0 24 -16 36 -35 12 -19 25 -35 28 -35 17 1 43 30 37
40 -12 19 -16 130 -5 130 6 0 10 6 10 13 0 19 71 56 77 40 2 -7 17 -28 33 -48
16 -20 30 -40 32 -45 5 -15 48 1 48 17 0 10 -6 13 -16 9 -13 -5 -15 -1 -10 17
4 16 -1 31 -13 44 -20 21 -12 43 17 43 7 0 18 13 23 29 8 22 15 27 33 24 14
-3 23 -12 22 -20 -2 -23 54 -37 73 -18 13 13 11 19 -19 50 -19 19 -28 35 -22
35 17 0 115 -53 146 -79 19 -16 35 -6 18 11 -7 7 -12 23 -12 36 0 19 4 22 21
17 11 -4 36 -24 54 -44 37 -41 103 -69 132 -56 10 5 23 7 28 5 82 -23 99 -16
59 23 -25 25 -20 42 10 31 9 -4 18 0 22 9 3 9 19 19 36 22 18 4 28 12 24 20
-2 7 1 18 7 24 8 8 8 14 -1 23 -7 7 -12 20 -12 30 0 17 -73 18 -1780 18
l-1780 0 0 -1265z m3275 1155 c3 -5 -3 -10 -14 -10 -12 0 -21 5 -21 10 0 6 6
10 14 10 8 0 18 -4 21 -10z m77 -51 c4 -26 2 -29 -16 -23 -19 6 -45 31 -46 44
0 3 13 6 29 7 25 2 29 -2 33 -28z m-642 -229 c0 -5 -5 -10 -11 -10 -5 0 -7 5
-4 10 3 6 8 10 11 10 2 0 4 -4 4 -10z m-345 -110 c4 -6 -7 -10 -25 -10 -18 0
-29 4 -25 10 3 6 15 10 25 10 10 0 22 -4 25 -10z m614 -12 c10 16 34 -2 29
-23 -6 -34 -32 -40 -61 -13 -15 14 -27 33 -27 42 0 15 2 15 26 0 18 -12 28
-14 33 -6z m320 -13 c12 -13 -24 -22 -50 -13 -28 10 -35 19 -23 30 6 6 63 -7
73 -17z m231 -25 c0 -5 -4 -10 -9 -10 -6 0 -13 5 -16 10 -3 6 1 10 9 10 9 0
16 -4 16 -10z m-252 -27 c6 -19 -33 -16 -49 3 -11 14 -9 15 16 12 16 -1 30 -9
33 -15z m643 -29 c7 -9 8 -14 1 -14 -6 0 -12 5 -14 11 -2 6 -17 12 -32 12 -17
0 -23 3 -16 7 16 10 46 2 61 -16z m-1617 -6 c9 -12 14 -24 12 -26 -6 -6 -45
21 -50 35 -9 22 22 14 38 -9z m1516 -24 c0 -14 -5 -24 -11 -22 -6 2 -10 7 -10
11 1 4 1 14 1 22 0 8 5 15 10 15 6 0 10 -12 10 -26z m-296 -4 c7 -7 6 -10 -2
-10 -6 0 -20 -10 -31 -22 -20 -21 -21 -21 -63 -3 -55 24 -69 35 -61 47 7 13
143 2 157 -12z m236 -20 c0 -5 -4 -10 -10 -10 -5 0 -10 5 -10 10 0 6 5 10 10
10 6 0 10 -4 10 -10z m-1598 -97 c11 -10 18 -11 23 -4 3 6 18 11 33 11 20 0
23 -3 14 -12 -26 -26 -13 -36 46 -37 86 -1 93 -3 90 -20 -2 -10 -12 -15 -26
-13 -16 2 -22 -2 -22 -17 0 -23 16 -36 45 -36 25 0 33 -46 11 -64 -20 -17 -46
-7 -46 17 0 10 -6 27 -14 38 -14 19 -15 19 -33 0 -10 -10 -12 -16 -5 -12 6 4
12 5 12 1 0 -3 -10 -9 -22 -14 -20 -7 -20 -9 12 -24 18 -10 39 -17 46 -17 23
0 25 -18 7 -57 -15 -31 -24 -39 -51 -41 -33 -3 -33 -4 -17 -23 21 -22 8 -46
-28 -51 -20 -3 -22 -8 -19 -59 3 -50 1 -57 -17 -62 -15 -3 -21 -13 -21 -32 0
-33 -18 -68 -31 -60 -10 7 -30 -35 -22 -48 6 -10 -17 -77 -27 -77 -15 0 -19
28 -4 34 15 6 20 41 6 50 -4 2 -21 -8 -39 -24 -21 -19 -32 -39 -34 -62 -3 -54
0 -80 11 -73 6 3 10 -1 10 -9 0 -18 -30 -36 -59 -36 -27 0 -27 20 -1 27 11 3
17 9 14 14 -3 5 -16 6 -28 3 -18 -4 -32 3 -60 30 -40 41 -97 50 -115 19 -9
-17 -10 -17 -17 0 -4 13 0 23 15 33 11 8 21 24 21 34 0 10 5 22 10 25 6 3 10
18 10 32 0 21 2 24 15 13 8 -7 15 -19 15 -26 0 -8 4 -14 9 -14 15 0 5 57 -13
76 -12 11 -14 20 -7 27 6 6 15 4 26 -7 9 -9 23 -16 30 -16 8 0 18 -7 23 -16 6
-10 12 -12 16 -6 3 5 -1 15 -9 22 -8 7 -15 19 -15 26 0 7 -13 20 -30 29 -34
18 -39 35 -10 35 24 0 71 -21 65 -29 -2 -4 10 -14 26 -23 34 -20 37 -11 8 26
-13 17 -19 35 -15 48 4 17 -5 31 -34 58 -38 35 -51 60 -31 60 5 0 22 -13 38
-30 51 -55 64 -34 27 44 -19 39 -18 42 6 21 19 -18 20 -17 20 3 0 27 15 36 30
17 18 -22 26 -19 40 15 13 31 24 37 35 20 11 -18 22 -2 18 27 -3 22 5 38 36
73 l40 45 1 -32 c0 -28 4 -33 23 -33 20 1 20 2 5 13 -11 9 -16 27 -16 60 1 46
-10 75 -19 50 -7 -21 -30 -15 -56 13 -33 36 -43 15 -18 -37 20 -40 20 -43 4
-70 -10 -16 -21 -29 -25 -29 -4 0 -17 -18 -28 -39 -28 -57 -38 -58 -60 -9 -10
23 -34 55 -52 70 -30 25 -31 27 -11 28 12 0 25 -5 28 -10 3 -6 20 -17 36 -25
28 -15 30 -15 41 10 8 18 18 25 30 22 10 -3 20 -2 22 2 5 8 -13 67 -27 89 -5
7 -5 21 -2 33 6 17 12 19 38 13 18 -3 39 -13 49 -21z m2172 -335 c18 -25 21
-54 7 -62 -15 -9 -76 38 -79 62 -3 19 1 22 27 22 20 0 35 -8 45 -22z m-2616
-320 c18 -18 15 -27 -8 -21 -11 3 -20 12 -20 19 0 17 12 18 28 2z m73 -197
c-6 -9 -14 -24 -17 -33 -3 -9 -12 -19 -20 -22 -17 -7 -18 -1 -2 27 7 12 11 32
9 44 -1 12 3 32 10 45 13 23 13 23 23 -11 7 -24 6 -38 -3 -50z m113 44 c3 -8
14 -15 25 -15 11 0 23 -5 27 -12 10 -15 -24 -38 -58 -38 -26 0 -28 3 -28 40 0
41 21 57 34 25z m2741 -5 c3 -5 -1 -10 -9 -10 -9 0 -16 5 -16 10 0 6 4 10 9
10 6 0 13 -4 16 -10z m-2984 -48 c5 -27 3 -32 -12 -32 -15 0 -19 7 -19 36 0
44 22 42 31 -4z m521 -30 c-7 -10 -15 -24 -19 -32 -4 -8 -21 -33 -40 -54 -18
-22 -33 -47 -33 -56 0 -21 -57 -80 -98 -102 -20 -11 -32 -25 -32 -38 0 -35
-16 -22 -48 39 l-32 58 23 27 c14 16 33 26 50 26 32 0 35 19 7 45 -23 21 -23
62 -1 57 27 -6 176 48 195 70 l19 22 11 -23 c7 -16 6 -27 -2 -39z m-322 -3 c0
-5 -7 -9 -15 -9 -9 0 -15 9 -15 21 0 18 2 19 15 9 8 -7 15 -16 15 -21z m-146
-63 c-10 -20 -21 -36 -26 -36 -12 0 -10 10 13 47 27 44 35 37 13 -11z m-4
-102 c47 -61 79 -94 89 -94 16 0 29 31 24 54 -4 16 4 11 31 -18 39 -43 44 -56
21 -56 -9 0 -15 -9 -15 -24 0 -16 -7 -27 -20 -31 -11 -3 -27 -13 -35 -22 -9
-8 -27 -15 -41 -15 -13 0 -24 -4 -24 -9 0 -5 -9 -9 -20 -9 -10 0 -25 -10 -31
-22 -19 -36 -22 -3 -4 36 15 32 15 36 0 60 -10 14 -24 26 -31 26 -8 0 -14 5
-14 10 0 17 32 11 46 -7 10 -14 15 -15 24 -6 9 8 8 14 -7 22 -11 5 -30 37 -42
70 -12 33 -26 63 -31 66 -6 4 -10 15 -10 25 0 19 1 19 30 2 16 -10 43 -36 60
-58z m107 11 c9 -25 -2 -27 -22 -5 -17 18 -17 20 -1 20 9 0 19 -7 23 -15z
m2783 -101 c0 -16 -26 -19 -35 -4 -3 6 -4 14 0 20 8 13 35 1 35 -16z m260 -3
c0 -9 -48 -21 -86 -21 -13 0 -24 5 -24 11 0 6 9 9 20 6 11 -3 23 -1 26 4 7 12
64 12 64 0z m-130 -106 c0 -8 -4 -15 -9 -15 -5 0 -11 7 -15 15 -3 9 0 15 9 15
8 0 15 -7 15 -15z m-3000 -81 c0 -14 -3 -14 -15 -4 -8 7 -15 14 -15 16 0 2 7
4 15 4 8 0 15 -7 15 -16z m-132 -38 c3 -13 -1 -17 -14 -14 -11 2 -20 11 -22
22 -3 13 1 17 14 14 11 -2 20 -11 22 -22z m96 -37 c-3 -5 -11 -9 -18 -9 -7 0
-13 -6 -14 -12 0 -7 -4 -23 -7 -35 -6 -19 -4 -23 16 -23 12 0 31 8 42 18 19
17 19 16 13 -14 -6 -29 -4 -32 21 -39 15 -3 35 -13 43 -20 8 -7 19 -14 25 -14
5 0 11 -5 13 -11 4 -12 -3 -11 -81 12 -43 13 -57 6 -35 -19 8 -10 15 -33 15
-50 0 -40 27 -73 54 -66 27 7 23 -8 -7 -31 -25 -18 -26 -18 -51 5 -40 38 -84
110 -90 146 -3 18 -10 36 -14 39 -16 9 -10 37 6 30 19 -7 19 4 0 31 -13 18
-12 22 4 37 11 10 22 29 26 43 6 24 7 25 25 8 11 -10 17 -22 14 -26z m-65
-270 c-21 -12 -35 7 -19 26 12 15 14 15 23 -1 6 -11 5 -19 -4 -25z m3899 -21
c4 -34 -9 -35 -43 -6 -34 29 -31 40 8 36 27 -2 33 -8 35 -30z m-3858 2 c0 -5
-2 -10 -4 -10 -3 0 -8 5 -11 10 -3 6 -1 10 4 10 6 0 11 -4 11 -10z m34 -80
c51 -34 70 -66 33 -54 -25 8 -83 53 -91 72 -9 20 13 14 58 -18z m-52 -108 c64
-30 82 -52 43 -52 -34 0 -134 49 -146 72 -9 17 -7 18 18 12 15 -3 54 -18 85
-32z m76 -177 c-3 -3 -9 2 -12 12 -6 14 -5 15 5 6 7 -7 10 -15 7 -18z m-28
-33 c0 -13 -23 -32 -39 -32 -11 0 -10 4 5 19 20 21 34 26 34 13z m-932 -24
c18 -18 15 -42 -7 -62 -28 -25 -55 -17 -59 17 -6 47 36 75 66 45z m828 -73
c-11 -8 -24 -15 -30 -15 -5 0 -1 7 10 15 10 8 24 14 29 14 6 0 1 -6 -9 -14z
m-673 -128 c7 -22 6 -33 -6 -44 -32 -32 -89 16 -67 58 17 31 61 22 73 -14z
m707 -87 c6 -11 16 -20 23 -20 19 -1 57 -37 57 -55 0 -9 -9 -19 -21 -22 -13
-4 -19 -13 -18 -27 4 -27 -18 -66 -36 -66 -19 0 -19 14 0 30 8 7 12 16 9 22
-3 5 0 15 6 23 10 12 7 17 -12 25 -34 16 -50 46 -43 81 8 34 20 37 35 9z
m-990 -62 c13 -21 20 -49 19 -78 -1 -25 -3 -37 -6 -28 -2 10 -15 38 -29 63
-13 25 -24 53 -24 61 0 24 19 16 40 -18z m1064 -234 c7 -18 0 -34 -15 -34 -5
0 -9 11 -9 25 0 28 15 34 24 9z m-93 -4 c10 -6 19 -19 19 -30 0 -23 71 -85
130 -113 47 -22 133 -97 112 -97 -7 0 -12 3 -12 8 0 4 -17 15 -37 24 -21 9
-53 31 -72 48 -34 31 -59 37 -76 21 -15 -15 -90 39 -104 74 -7 17 -16 38 -21
47 -14 25 25 37 61 18z m159 -80 c0 -5 -7 -10 -15 -10 -8 0 -15 5 -15 10 0 6
7 10 15 10 8 0 15 -4 15 -10z m36 -15 c3 -8 33 -24 65 -37 81 -31 114 -58 105
-86 -10 -30 -21 -28 -69 13 -22 19 -51 35 -64 35 -13 0 -23 6 -23 14 0 7 -11
21 -25 30 -15 10 -22 22 -19 31 8 19 23 19 30 0z m-161 -75 c4 -6 22 -17 40
-24 23 -10 39 -26 49 -50 8 -19 33 -55 55 -79 42 -46 53 -74 25 -63 -9 3 -33
9 -55 12 -25 4 -47 16 -59 32 -14 17 -26 23 -40 19 -17 -4 -21 -1 -18 16 2 17
9 22 32 20 26 -2 27 -1 12 16 -9 10 -16 25 -16 35 0 9 -11 22 -25 28 -14 6
-25 19 -25 30 0 19 15 24 25 8z m85 -235 c7 -8 30 -20 51 -25 22 -6 39 -14 39
-18 0 -5 -54 -7 -91 -3 -3 1 -15 15 -27 31 -21 28 -22 30 -4 30 11 0 25 -7 32
-15z m-75 -377 c30 -26 32 -38 7 -38 -11 0 -24 11 -30 25 -20 43 -14 46 23 13z
m605 -50 l-1 -53 -14 34 c-19 43 -19 71 0 71 11 0 15 -12 15 -52z m-86 -47
c11 -17 -5 -70 -19 -64 -8 2 -23 -5 -35 -17 -14 -14 -30 -20 -45 -17 -21 3
-25 -1 -30 -34 -4 -22 -16 -58 -27 -80 -12 -26 -18 -55 -16 -75 2 -19 0 -34
-5 -34 -4 0 -6 -4 -3 -8 7 -11 -22 -52 -36 -52 -13 0 -5 118 11 165 6 17 13
43 16 58 3 16 18 39 33 53 15 13 31 28 36 33 63 69 106 95 120 72z m-1566 -82
c-17 -11 -58 -11 -58 -1 0 16 44 30 58 19 11 -8 11 -12 0 -18z m163 -75 c27
-20 49 -42 49 -50 0 -8 -2 -14 -4 -14 -13 0 -83 46 -98 64 -40 48 -12 48 53 0z
m229 -34 c0 -5 -5 -10 -11 -10 -5 0 -7 5 -4 10 3 6 8 10 11 10 2 0 4 -4 4 -10z
m4391 -590 c10 -6 19 -21 19 -33 0 -15 -3 -18 -9 -9 -6 10 -10 10 -21 -3 -19
-23 -31 -18 -26 13 2 15 5 30 5 35 1 10 9 9 32 -3z"/>
<path d="M2101 4454 c0 -11 3 -14 6 -6 3 7 2 16 -1 19 -3 4 -6 -2 -5 -13z"/>
<path d="M2102 4400 c0 -14 2 -19 5 -12 2 6 2 18 0 25 -3 6 -5 1 -5 -13z"/>
<path d="M2067 4195 c18 -25 34 -28 40 -8 2 6 -10 16 -27 21 l-30 11 17 -24z"/>
<path d="M1945 4200 c3 -5 8 -10 11 -10 2 0 4 5 4 10 0 6 -5 10 -11 10 -5 0
-7 -4 -4 -10z"/>
<path d="M1997 4183 c-4 -3 -7 -14 -7 -24 0 -16 3 -17 28 -7 37 16 38 18 22
28 -18 11 -34 13 -43 3z"/>
<path d="M2000 4046 c0 -9 5 -16 10 -16 6 0 10 4 10 9 0 6 -4 13 -10 16 -5 3
-10 -1 -10 -9z"/>
<path d="M3920 5562 c0 -10 116 -70 153 -78 22 -5 27 -3 27 13 0 11 -3 23 -7
27 -5 4 -9 12 -9 17 -1 5 -2 14 -3 19 -1 12 -161 14 -161 2z"/>
<path d="M3930 5401 c19 -9 37 -16 39 -14 9 7 -35 32 -54 32 -14 0 -10 -5 15
-18z"/>
<path d="M3995 5360 c-8 -13 15 -24 27 -12 6 6 4 11 -6 15 -8 3 -18 2 -21 -3z"/>
<path d="M3202 5330 c1 -13 9 -25 16 -28 17 -5 15 23 -4 39 -14 11 -15 10 -12
-11z"/>
<path d="M3050 5256 c0 -17 37 -46 58 -46 8 0 2 12 -15 30 -31 33 -43 37 -43
16z"/>
<path d="M3806 5261 c-7 -11 59 -54 75 -49 15 5 -21 45 -48 53 -12 3 -24 2
-27 -4z"/>
<path d="M3545 5239 c-4 -6 -5 -12 -2 -15 2 -3 7 2 10 11 7 17 1 20 -8 4z"/>
<path d="M3735 5217 c-19 -15 -13 -37 10 -37 16 0 38 34 28 44 -9 9 -17 8 -38
-7z"/>
<path d="M4028 5193 c7 -3 16 -2 19 1 4 3 -2 6 -13 5 -11 0 -14 -3 -6 -6z"/>
<path d="M4100 5116 c0 -9 5 -16 10 -16 6 0 10 4 10 9 0 6 -4 13 -10 16 -5 3
-10 -1 -10 -9z"/>
<path d="M3840 5100 c0 -5 7 -10 15 -10 8 0 15 5 15 10 0 6 -7 10 -15 10 -8 0
-15 -4 -15 -10z"/>
<path d="M4130 5001 c0 -12 39 -35 46 -28 3 2 -7 12 -21 21 -14 9 -25 12 -25
7z"/>
<path d="M4506 4963 c-11 -11 -6 -23 9 -23 8 0 15 4 15 9 0 13 -16 22 -24 14z"/>
<path d="M4343 4938 c-18 -6 -33 -17 -33 -24 0 -15 26 -19 34 -5 3 5 31 12 61
16 30 3 55 11 55 16 0 12 -76 10 -117 -3z"/>
<path d="M4210 4911 c0 -14 61 -42 73 -34 13 8 -14 31 -45 38 -19 5 -28 3 -28
-4z"/>
<path d="M4605 4510 c3 -5 11 -10 16 -10 6 0 7 5 4 10 -3 6 -11 10 -16 10 -6
0 -7 -4 -4 -10z"/>
<path d="M4670 4246 c0 -10 9 -20 20 -23 11 -3 20 -11 20 -18 0 -8 14 -16 31
-20 29 -7 30 -8 13 -26 -22 -24 -15 -30 41 -39 36 -5 43 -4 34 6 -6 7 -19 16
-29 19 -10 3 -20 16 -22 28 -2 14 -11 23 -26 25 -13 2 -37 17 -53 34 -22 24
-29 27 -29 14z"/>
<path d="M5074 3904 c27 -23 43 -31 50 -24 15 15 -32 60 -63 60 -25 -1 -25 -2
13 -36z"/>
<path d="M5120 3804 c0 -4 8 -13 18 -20 16 -13 16 -13 0 -14 -42 0 -4 -29 39
-30 15 0 7 27 -15 53 -15 16 -42 24 -42 11z"/>
<path d="M5205 3710 c-3 -5 3 -10 15 -10 12 0 18 5 15 10 -3 6 -10 10 -15 10
-5 0 -12 -4 -15 -10z"/>
<path d="M5450 3611 c0 -5 10 -13 22 -17 13 -4 28 -14 35 -23 11 -15 12 -15
13 0 0 9 -11 24 -25 33 -27 18 -45 21 -45 7z"/>
<path d="M5500 3524 c0 -16 23 -44 36 -44 11 0 12 4 5 19 -10 17 -41 37 -41
25z"/>
<path d="M5573 3473 c-10 -4 -9 -8 1 -19 20 -20 46 -18 46 4 0 17 -22 24 -47
15z"/>
<path d="M5611 634 c0 -11 3 -14 6 -6 3 7 2 16 -1 19 -3 4 -6 -2 -5 -13z"/>
</g>
</svg>
